<svg xmlns="http://www.w3.org/2000/svg" xmlns:xlink="http://www.w3.org/1999/xlink" id="Layer_1" x="0" y="0" version="1.1" viewBox="0 0 492 92" xml:space="preserve" style="enable-background:new 0 0 492 92"><style type="text/css">.st0{fill:#939598}</style><path d="M33.2,1.3H0v37.6l22.1,20V22.4H34c7.5,0,11.2,3.7,11.2,9.5v27.9c0,5.8-3.5,9.7-11.2,9.7H0v21.2h33.2	c17.8,0.1,34.5-8.8,34.5-29.4V31.2C67.7,10.4,51,1.3,33.2,1.3z M207.2,61.4V30.6c0-11.1,19.8-13.7,25.8-2.5l18.3-7.5	C244.2,4.7,231,0,220.1,0c-17.8,0-35.4,10.4-35.4,30.6v30.8c0,20.3,17.6,30.6,35,30.6c11.2,0,24.6-5.6,32-20.1l-19.6-9.1	C227.3,75.2,207.2,72.2,207.2,61.4L207.2,61.4z M146.6,34.8c-6.9-1.5-11.5-4-11.8-8.3c0.4-10.4,16.3-10.7,25.6-0.8l14.7-11.4	C165.9,3,155.5,0,144.7,0c-16.3,0-32.1,9.2-32.1,26.8c0,17.1,13,26.2,27.3,28.4c7.3,1,15.4,3.9,15.2,9c-0.6,9.6-20.2,9.1-29.1-1.8	l-14.1,13.4c8.3,10.7,19.6,16.2,30.2,16.2c16.3,0,34.4-9.5,35.1-26.8C178.2,43.2,162.4,37.7,146.6,34.8z M79.7,90.7h22.4V1.3H79.7	V90.7z M457.7,1.3h-33.2v37.6l22.1,20V22.4h11.8c7.5,0,11.2,3.7,11.2,9.5v27.9c0,5.8-3.5,9.7-11.2,9.7h-34v21.2h33.2	c17.8,0.1,34.5-8.8,34.5-29.4V31.2C492.2,10.4,475.5,1.3,457.7,1.3z M294.7,0C276.3,0,258,10.1,258,30.7v30.6	c0,20.5,18.4,30.7,36.9,30.7c18.4,0,36.7-10.2,36.7-30.7V30.7C331.6,10.2,313.1,0,294.7,0z M309.1,61.3c0,6.4-7.2,9.7-14.3,9.7	c-7.2,0-14.4-3.2-14.4-9.7V30.7c0-6.6,7-10.1,14-10.1c7.3,0,14.7,3.2,14.7,10.1L309.1,61.3z M412.1,30.7c-0.5-21-14.7-29.4-33-29.4	h-35.5v89.5h22.7V62.3h4l20.6,28.4h28L394.7,60C405.5,56.6,412.1,47.3,412.1,30.7z M379.5,42.8h-13.2V22.4h13.2	C393.7,22.4,393.7,42.8,379.5,42.8z" class="st0"/></svg>